<?xml version="1.0" standalone="no"?>
<!DOCTYPE svg PUBLIC "-//W3C//DTD SVG 20010904//EN"
 "http://www.w3.org/TR/2001/REC-SVG-20010904/DTD/svg10.dtd">
<svg version="1.0" xmlns="http://www.w3.org/2000/svg"
 width="240.000000pt" height="320.000000pt" viewBox="0 0 240.000000 320.000000"
 preserveAspectRatio="xMidYMid meet">
<metadata>
Created by potrace 1.16, written by Peter Selinger 2001-2019
</metadata>
<g transform="translate(0.000000,320.000000) scale(0.100000,-0.100000)"
fill="#000000" stroke="none">
<path d="M0 3119 c0 -56 4 -85 14 -95 19 -18 23 -18 28 4 8 30 65 17 83 -19
22 -41 20 -79 -4 -79 -11 0 -23 5 -26 10 -3 6 -18 10 -32 10 -17 0 -27 7 -30
20 -4 16 -8 18 -19 9 -11 -9 -14 -60 -14 -251 l0 -240 54 6 c52 7 53 7 66 -24
12 -29 37 -50 58 -50 6 0 8 41 4 105 -5 99 -4 105 15 105 10 0 29 -9 42 -21
21 -20 21 -22 5 -40 -21 -24 -10 -38 17 -21 11 7 24 10 28 7 16 -10 19 -46 5
-60 -13 -13 -13 -17 1 -38 8 -13 12 -27 8 -30 -3 -4 -6 -23 -5 -42 1 -28 -2
-35 -17 -35 -10 0 -21 9 -24 20 -6 24 -22 26 -31 5 -4 -10 2 -19 17 -24 33
-13 48 -35 54 -81 6 -39 16 -50 28 -30 9 14 49 12 63 -2 10 -10 15 -10 22 2
17 25 7 53 -22 61 -21 5 -27 3 -31 -12 -7 -27 -26 -23 -38 8 -13 34 -9 53 15
67 25 14 43 27 65 47 17 15 22 14 72 -11 43 -21 55 -32 57 -53 2 -15 10 -27
17 -27 25 0 26 -19 3 -43 -16 -16 -23 -35 -23 -60 0 -20 3 -38 8 -38 4 -1 13
-2 20 -3 7 -1 11 -15 10 -39 -1 -20 2 -37 7 -37 6 0 10 -9 10 -20 0 -11 -5
-20 -12 -20 -6 0 -4 -8 6 -19 11 -12 17 -34 16 -62 0 -24 0 -56 -1 -71 0 -15
-4 -30 -9 -33 -6 -3 -5 -16 0 -31 6 -14 10 -38 10 -53 0 -37 -35 -82 -57 -74
-13 5 -15 2 -9 -12 4 -10 -1 -37 -11 -62 -14 -34 -25 -46 -46 -50 -28 -6 -36
-18 -14 -26 38 -13 -65 -40 -109 -28 -27 7 -29 11 -27 52 1 33 -1 39 -7 23 -5
-12 -13 -25 -18 -28 -19 -12 -59 12 -66 39 -4 17 -17 30 -36 37 -17 5 -30 14
-30 19 0 5 -7 9 -15 9 -19 0 -19 -19 0 -40 15 -17 11 -50 -5 -50 -5 0 -15 7
-24 15 -8 8 -24 15 -35 15 -26 0 -26 8 -4 33 16 17 16 19 1 28 -22 12 -34 69
-18 79 10 6 8 29 -10 101 -12 52 -27 99 -33 104 -6 7 -8 2 -4 -14 3 -14 1 -31
-5 -38 -8 -10 -8 -20 1 -39 14 -31 15 -101 1 -109 -13 -8 -13 -55 0 -55 13 0
13 -37 1 -45 -14 -8 -13 -178 1 -186 8 -5 8 -18 -1 -51 -7 -23 -11 -72 -9
-107 3 -61 5 -65 30 -72 23 -6 28 -4 28 12 0 19 20 26 34 12 4 -4 13 -8 19 -8
26 -1 68 -29 65 -44 -3 -16 -20 -19 -123 -24 -38 -1 -50 -6 -53 -20 -2 -10 3
-17 13 -17 18 0 30 -24 20 -40 -5 -8 -11 -8 -21 1 -12 10 -14 -9 -14 -129 0
-96 4 -143 12 -148 6 -4 8 -3 5 3 -4 6 29 28 77 52 47 22 87 45 91 51 3 5 12
10 19 10 7 0 46 18 87 40 40 22 84 43 98 47 32 7 78 48 98 88 24 45 62 80 92
82 19 2 22 0 11 -7 -8 -5 -19 -6 -25 -2 -5 3 -4 -2 4 -11 11 -13 17 -15 28 -6
11 9 12 9 8 -4 -4 -8 -1 -18 5 -22 6 -3 9 -1 8 6 -2 6 3 14 10 16 8 3 10 -1 5
-13 -5 -13 -3 -16 10 -11 11 4 17 1 18 -8 2 -16 5 -32 9 -40 1 -3 3 -8 5 -12
1 -5 5 -16 9 -25 4 -9 4 -22 0 -29 -4 -8 -3 -9 4 -5 7 4 13 1 13 -8 1 -9 3
-20 4 -26 1 -5 3 -15 4 -21 0 -5 7 -7 14 -3 9 5 9 4 0 -6 -8 -8 -17 -10 -26
-4 -7 5 -4 1 6 -9 16 -14 17 -20 7 -32 -7 -9 -10 -18 -7 -21 3 -3 14 11 25 32
19 37 20 37 27 13 4 -13 15 -32 24 -43 33 -38 193 -348 284 -551 36 -80 116
-284 134 -340 l10 -30 234 -2 c129 -1 225 2 215 6 -13 5 -16 10 -9 14 6 4 19
0 28 -9 12 -13 19 -14 28 -5 9 9 6 13 -12 18 -17 4 -20 8 -9 15 9 6 6 8 -11 6
-14 -2 -25 3 -27 10 -1 7 0 8 2 3 7 -14 34 -2 34 16 0 10 -6 12 -19 8 -11 -3
-22 -1 -26 5 -3 6 -10 8 -15 5 -5 -3 -12 0 -16 6 -3 6 0 15 7 20 21 13 30 11
27 -7 -2 -10 3 -19 10 -21 7 -3 12 4 12 16 0 12 -4 21 -10 21 -15 0 -12 40 3
41 6 0 3 4 -8 8 -27 11 -37 4 -25 -19 9 -18 7 -19 -25 -18 -29 1 -33 4 -23 16
8 9 14 10 16 3 4 -13 22 -15 22 -2 0 5 -7 17 -16 25 -14 15 -13 16 6 16 12 0
18 4 15 10 -4 6 -10 8 -15 5 -4 -3 -10 5 -13 17 -4 12 -2 25 4 29 7 4 4 9 -6
12 -10 5 -14 3 -9 -5 5 -7 3 -8 -5 -4 -7 5 -10 15 -6 23 4 13 3 14 -9 4 -8 -7
-17 -8 -20 -3 -3 6 2 13 12 17 16 7 15 8 -3 15 -17 7 -17 9 -2 9 9 1 17 6 17
12 0 5 -4 8 -9 4 -5 -3 -12 -1 -16 4 -3 5 2 14 10 19 15 8 15 10 1 21 -13 11
-16 11 -16 -3 0 -9 -5 -16 -11 -16 -5 0 -8 4 -4 9 3 5 -2 16 -10 25 -10 10
-12 17 -5 21 8 5 8 11 0 20 -7 8 -9 24 -5 36 6 17 4 21 -8 16 -9 -3 -18 1 -21
9 -3 8 -1 14 4 14 14 0 -9 56 -31 76 -14 12 -16 21 -8 30 7 9 6 14 -2 20 -8 5
-9 3 -4 -6 5 -9 4 -11 -4 -6 -6 4 -9 11 -6 16 3 5 -1 21 -10 34 -9 14 -14 30
-10 36 3 5 -2 10 -11 10 -16 0 -16 1 1 20 17 19 17 19 -4 15 -19 -3 -20 -1
-10 17 6 11 7 18 1 14 -5 -3 -12 4 -16 17 -3 12 -1 24 4 25 16 6 11 20 -7 25
-17 4 -17 5 0 6 9 0 17 6 17 11 0 6 7 10 15 10 8 0 15 5 15 10 0 6 -11 10 -25
10 -28 0 -26 20 6 55 13 15 15 24 8 35 -9 13 -10 12 -5 -2 4 -15 3 -16 -14 -6
-11 7 -15 15 -9 19 5 3 9 10 8 15 -3 13 12 44 20 44 4 0 8 -7 8 -15 0 -8 -4
-12 -9 -9 -13 8 -10 -1 17 -47 14 -24 25 -51 25 -60 0 -8 7 -38 15 -66 l15
-50 42 5 c24 2 52 11 63 18 35 25 64 17 111 -31 47 -49 54 -76 29 -112 l-16
-22 -47 22 c-26 12 -65 33 -87 48 -77 49 -92 43 -61 -24 8 -18 24 -59 35 -92
11 -33 29 -78 41 -100 11 -21 20 -45 20 -52 0 -6 9 -28 21 -47 18 -31 26 -36
57 -36 86 0 149 -40 76 -48 -16 -2 -33 -7 -38 -12 -5 -5 -19 -2 -32 7 -13 8
-24 12 -24 9 0 -9 40 -158 45 -166 2 -3 6 -26 10 -50 3 -25 11 -61 17 -80 7
-19 11 -41 10 -47 -2 -10 70 -13 333 -13 l335 0 0 1553 0 1554 -22 -3 c-13 -1
-33 -3 -46 -3 -19 -1 -21 -5 -16 -26 8 -33 -15 -41 -55 -21 -38 20 -37 21 -36
-11 0 -23 -4 -28 -25 -28 -19 0 -29 9 -43 39 -11 23 -15 42 -9 48 4 4 40 10
78 11 38 1 72 6 75 11 4 5 24 5 48 -1 22 -6 43 -8 46 -5 3 3 5 23 5 44 l0 38
-167 0 c-162 0 -166 0 -149 -19 15 -17 16 -20 1 -34 -8 -9 -22 -14 -30 -11 -8
4 -15 1 -15 -5 0 -6 -7 -11 -15 -11 -8 0 -15 9 -15 20 0 11 6 20 14 20 12 0
26 20 26 36 0 2 -20 4 -45 4 -34 0 -45 -4 -45 -15 0 -21 -46 -38 -70 -25 -28
15 -33 12 -27 -16 3 -20 0 -28 -13 -31 -16 -4 -16 -8 -4 -31 7 -15 16 -46 20
-69 3 -24 10 -40 16 -37 10 7 78 -59 78 -76 0 -5 7 -10 15 -10 26 0 16 -28
-21 -56 l-36 -28 23 -17 22 -17 -46 -46 -45 -47 -1 -480 c-1 -326 2 -478 9
-474 6 4 10 12 8 18 -4 27 15 138 24 135 5 -2 17 -16 26 -30 15 -25 15 -28 -2
-47 -21 -23 -10 -33 48 -41 46 -6 70 -34 46 -53 -8 -7 -16 -17 -17 -22 -1 -6
-5 -18 -8 -27 -6 -14 -2 -17 21 -15 35 2 42 -20 21 -63 -9 -18 -12 -32 -6 -36
5 -3 7 -14 4 -23 -5 -15 2 -17 52 -15 32 2 67 4 78 6 12 2 21 -4 23 -16 3 -15
-1 -18 -22 -14 -21 4 -26 1 -26 -14 0 -26 -44 -45 -65 -28 -20 16 -32 4 -37
-35 -4 -35 -36 -48 -44 -18 -3 10 -18 27 -35 38 -34 23 -47 57 -53 142 -3 34
-14 81 -25 105 l-19 43 -1 -122 -1 -121 44 -44 c53 -52 101 -148 92 -183 -8
-30 -38 -33 -63 -6 -10 10 -30 21 -44 24 -24 6 -27 4 -33 -31 -3 -20 -6 -63
-6 -94 0 -68 -13 -108 -36 -108 -28 0 -6 -13 49 -30 69 -21 70 -43 2 -51 -27
-4 -68 -11 -90 -18 -66 -18 -104 -14 -114 11 -10 29 12 66 45 74 27 7 28 8 14
34 -5 10 -12 101 -15 202 -3 101 -8 191 -11 202 -9 29 -29 1 -29 -42 0 -37 0
-37 -47 -40 -42 -3 -48 -1 -60 25 -7 16 -23 29 -36 31 -12 2 -28 12 -36 23
-13 19 -15 18 -29 -23 -9 -24 -19 -69 -22 -100 -4 -32 -10 -58 -15 -58 -5 0
-6 -8 -3 -18 6 -16 6 -16 -10 0 -9 9 -17 25 -16 35 0 10 3 13 6 6 2 -7 9 -13
14 -13 6 0 7 5 4 10 -3 6 -3 16 2 22 13 22 12 88 -2 102 -14 14 -15 32 -2 54
6 8 2 12 -10 13 -10 0 0 7 22 15 52 19 69 37 19 19 -65 -22 -131 1 -160 56
-21 42 -19 68 6 62 12 -3 20 0 20 6 0 9 20 11 73 6 72 -6 73 -6 75 19 1 21 -3
26 -33 32 -30 5 -33 9 -24 25 13 25 65 26 71 2 3 -10 4 -53 4 -95 -1 -81 6
-86 30 -22 14 37 15 37 10 7 -3 -18 -1 -33 3 -33 13 0 23 53 16 83 -4 14 -2
34 4 45 10 18 7 22 -22 31 -17 6 -36 12 -42 13 -5 1 -27 5 -48 8 -20 4 -40 3
-43 -1 -3 -5 -16 -6 -29 -3 -13 3 -37 -2 -56 -12 -19 -10 -37 -17 -41 -16 -5
1 -8 -2 -8 -7 0 -14 -57 -11 -120 5 -63 17 -186 15 -183 -2 3 -13 -54 -27 -70
-17 -5 3 -7 1 -4 -4 4 -6 -5 -14 -19 -17 -30 -8 -112 2 -119 14 -3 4 4 27 14
51 14 30 17 47 10 56 -6 6 -12 29 -14 50 -2 21 -4 38 -5 38 -7 0 -6 74 2 97 7
20 22 31 58 43 27 9 54 23 61 31 18 22 58 41 106 49 23 4 53 15 66 26 14 10
28 15 32 11 13 -12 -16 42 -33 61 -8 9 -10 17 -4 17 12 0 52 -52 52 -68 0 -5
7 -15 16 -23 13 -10 17 -10 24 0 6 10 10 8 15 -8 3 -11 12 -22 18 -22 30 -3
53 4 70 22 17 19 17 19 0 26 -10 4 -21 11 -24 16 -4 5 -13 -5 -20 -22 l-14
-31 -11 32 c-6 18 -16 32 -22 31 -6 -2 -16 15 -22 37 -6 22 -15 41 -20 41 -6
1 -15 2 -21 3 -6 0 -16 9 -23 19 -7 9 -20 17 -29 17 -9 0 -19 5 -22 10 -3 6
-17 10 -31 10 -13 0 -24 5 -24 11 0 5 5 7 10 4 6 -3 10 -1 10 6 0 7 8 5 20 -6
18 -16 24 -14 22 6 -1 3 9 4 21 2 12 -2 42 3 67 11 41 14 42 15 10 11 -25 -4
-31 -2 -20 5 18 12 97 12 125 1 22 -9 47 1 79 30 19 18 19 19 -17 34 -20 8
-45 15 -55 15 -17 0 -20 11 -25 83 -10 125 -8 210 6 228 7 10 12 39 11 68 -2
39 1 51 12 51 8 0 14 -7 14 -15 0 -8 9 -19 19 -25 26 -14 38 -13 23 2 -19 19
-14 25 21 24 17 0 32 4 32 9 0 10 -4 11 -33 14 -8 1 -10 10 -6 28 l7 28 -26
-29 c-15 -16 -30 -26 -33 -23 -14 14 -16 93 -3 104 16 12 79 5 79 -9 0 -5 5
-6 10 -3 6 4 16 2 23 -3 7 -6 24 -8 40 -5 20 4 27 11 27 29 0 31 17 39 41 18
19 -18 27 -40 9 -29 -5 3 -12 -5 -16 -19 -3 -15 -11 -23 -19 -20 -7 3 -16 1
-19 -4 -3 -6 1 -12 9 -16 22 -8 19 -47 -5 -53 -11 -3 -20 -12 -20 -20 0 -8
-11 -24 -23 -36 -25 -23 -44 -87 -27 -87 6 0 10 6 10 14 0 7 7 20 16 27 13 11
17 10 26 -4 11 -21 28 -13 28 13 0 18 25 34 40 25 14 -9 42 34 47 74 8 56 33
76 102 78 31 0 62 -4 69 -10 7 -6 12 -6 11 -1 -2 5 0 30 5 56 9 62 38 98 79
99 28 1 27 2 -12 10 -53 10 -51 9 -54 48 -2 27 -6 31 -29 31 -21 0 -28 -5 -28
-20 0 -13 -7 -20 -20 -20 -16 0 -19 -5 -14 -30 6 -26 4 -30 -15 -30 -13 0 -23
8 -26 23 -5 19 -11 23 -36 19 -32 -5 -36 -13 -14 -32 8 -7 15 -19 15 -26 0
-19 -29 -18 -37 2 -4 11 -13 13 -36 8 -19 -4 -32 -2 -37 7 -7 10 -11 10 -24 0
-17 -14 -23 -11 -78 32 -21 16 -38 37 -38 46 0 16 -15 18 -165 19 -138 1 -165
-1 -165 -13 0 -20 -39 -19 -46 0 -5 12 -33 15 -165 15 -174 0 -178 -2 -135
-55 22 -27 27 -29 46 -17 24 15 40 8 40 -17 0 -18 31 -56 51 -63 19 -6 1 -28
-24 -28 -29 -1 -62 -29 -70 -60 -3 -14 -16 -36 -27 -48 -17 -18 -25 -21 -36
-11 -10 8 -11 16 -4 29 15 27 13 47 -2 32 -19 -19 -48 -15 -48 7 0 10 -7 22
-16 25 -12 5 -15 14 -10 40 6 31 4 34 -24 39 -54 11 -138 57 -169 92 l-30 35
-151 0 -150 0 0 -81z m359 -28 c20 -11 43 -27 50 -35 17 -21 6 -50 -15 -42
-21 8 -64 -19 -64 -39 0 -19 20 -19 48 1 27 19 42 11 35 -17 -4 -12 0 -25 8
-30 21 -13 27 -11 34 10 9 31 34 34 47 6 6 -14 20 -25 31 -25 10 0 37 -14 58
-31 39 -30 40 -31 60 -13 19 17 20 17 25 -4 5 -18 9 -19 25 -9 16 10 21 9 29
-3 13 -21 -2 -32 -46 -33 -40 -1 -78 -30 -69 -54 2 -7 -2 -10 -11 -6 -9 3 -29
-8 -50 -28 l-34 -33 0 32 c0 30 -2 32 -26 26 -20 -5 -25 -3 -22 7 7 19 -10 49
-27 49 -10 0 -15 -10 -15 -31 0 -23 -5 -32 -20 -36 -15 -4 -19 -11 -15 -24 11
-32 -11 -21 -62 34 -15 15 -32 27 -38 27 -7 0 -19 8 -28 18 -16 17 -16 24 3
96 11 42 22 100 26 129 6 59 11 77 19 77 3 0 23 -9 44 -19z m668 -201 c-6 -27
-4 -30 29 -36 20 -4 38 -13 41 -20 7 -19 -15 -44 -38 -44 -13 0 -19 -7 -19
-24 0 -13 -3 -32 -6 -41 -5 -11 0 -18 15 -22 27 -7 28 -43 1 -50 -13 -3 -20
-14 -20 -28 0 -13 -3 -30 -6 -39 -3 -9 5 -26 20 -41 19 -19 25 -34 23 -63 -2
-32 -5 -37 -25 -36 -15 0 -21 -4 -18 -12 3 -8 0 -16 -6 -20 -17 -11 -49 37
-44 67 4 23 2 25 -23 21 -16 -2 -32 1 -36 7 -9 16 13 41 35 41 10 0 23 7 30
16 21 25 -10 47 -64 46 -47 0 -55 8 -36 38 6 10 2 26 -11 50 -21 38 -23 105
-3 105 6 0 19 8 29 18 10 10 21 14 24 9 3 -5 18 -12 34 -16 25 -6 26 -5 15 13
-6 10 -18 17 -25 14 -23 -9 -14 9 22 43 44 44 70 45 62 4z m-409 -248 c2 -14
11 -22 23 -22 11 0 23 -10 29 -24 13 -36 29 -41 58 -19 31 23 52 20 52 -7 0
-32 -11 -50 -32 -50 -16 0 -19 -6 -16 -36 3 -33 1 -37 -24 -40 -22 -2 -28 2
-28 17 0 11 -10 33 -21 48 -12 16 -19 33 -16 38 3 4 -1 17 -9 28 -15 20 -15
20 -57 -3 -41 -22 -42 -22 -67 -4 -38 29 -33 45 20 67 8 3 26 12 40 20 31 18
44 15 48 -13z m229 -996 c2 -1 5 -19 7 -40 8 -61 46 -117 95 -142 27 -13 38
-24 30 -27 -10 -4 -7 -8 8 -12 l23 -7 -21 -30 c-12 -16 -19 -37 -16 -48 3 -12
-5 -25 -24 -39 -18 -13 -29 -31 -29 -45 0 -25 22 -51 33 -39 4 3 7 1 7 -5 0
-14 -50 -12 -51 3 -1 5 -1 21 0 35 2 20 0 22 -8 10 -9 -13 -11 -13 -11 1 0 9
-12 24 -26 34 -14 9 -23 22 -21 30 3 7 0 18 -6 24 -6 6 -8 11 -5 11 4 0 14 -7
22 -16 10 -10 21 -12 31 -7 28 16 -6 47 -53 48 -23 0 -44 4 -48 7 -3 4 -8 30
-10 57 -3 36 0 51 8 51 10 0 9 3 -1 9 -7 5 -11 13 -7 19 3 6 2 22 -4 36 -9 25
2 37 15 16 3 -5 16 -10 28 -10 18 1 16 3 -10 15 -18 8 -34 18 -34 22 -9 54 -8
55 35 48 22 -4 42 -8 43 -9z m412 -36 c12 -27 34 -65 50 -82 45 -53 45 -72 1
-92 -42 -18 -68 -20 -152 -10 -70 8 -80 25 -40 68 36 38 47 60 57 111 13 73
54 76 84 5z m-656 -12 c7 0 17 -2 22 -2 21 -3 34 -17 28 -31 -3 -8 -2 -23 2
-32 6 -16 8 -15 20 7 13 24 13 23 19 -25 8 -61 12 -84 21 -111 4 -14 1 -27
-10 -38 -27 -26 -58 0 -67 55 -3 24 -18 73 -32 108 -14 36 -25 76 -25 90 2 24
2 24 6 4 2 -13 10 -24 16 -25z m547 -2 c0 -62 -76 -136 -139 -136 -62 0 -131
62 -131 118 0 19 6 22 38 23 20 1 46 3 57 5 11 2 39 6 62 8 23 2 50 9 59 14
30 17 54 3 54 -32z m1196 -93 c4 -16 11 -34 17 -41 7 -9 7 -16 -1 -24 -9 -9
-8 -15 0 -26 10 -11 8 -18 -8 -31 -12 -9 -26 -27 -33 -39 -12 -22 -45 -29 -69
-13 -19 12 -4 59 21 67 21 6 37 21 37 35 0 3 -20 5 -44 5 -50 -1 -61 6 -52 30
5 12 16 15 46 12 34 -3 39 -1 34 14 -7 24 3 38 26 38 13 0 22 -9 26 -27z m-84
-210 c16 -17 19 -25 10 -36 -9 -10 -9 -16 0 -25 17 -17 38 -15 38 4 0 8 5 12
10 9 6 -4 8 -15 5 -25 -7 -22 14 -38 25 -20 4 7 15 10 24 7 18 -7 22 -57 5
-74 -8 -8 -8 -17 1 -32 11 -22 -2 -35 -31 -30 -8 1 -22 -1 -32 -6 -10 -4 -29
-3 -41 3 -13 6 -29 6 -36 2 -8 -5 -26 -2 -44 7 l-30 15 40 14 c21 8 41 14 43
14 2 0 1 7 -3 15 -3 8 -1 15 3 15 5 0 11 -6 14 -12 7 -22 17 -4 10 20 -7 28
-44 38 -82 22 -18 -7 -39 -9 -53 -4 -13 4 -28 7 -35 6 -13 -3 -22 22 -26 78
-1 26 2 35 16 38 10 2 17 -3 17 -13 0 -9 5 -13 10 -10 6 3 10 14 10 24 0 28
102 23 132 -6z m-872 -29 c13 -33 13 -57 0 -49 -7 4 -9 -11 -6 -42 5 -46 -10
-103 -26 -103 -5 0 -8 -7 -8 -15 0 -9 -6 -15 -12 -14 -24 3 -37 -1 -52 -17 -9
-8 -16 -10 -16 -4 0 10 -9 7 -41 -12 -3 -1 -13 3 -22 10 -10 9 -17 10 -22 2
-8 -13 -75 -10 -75 5 0 5 -4 4 -9 -4 -6 -9 -11 -10 -15 -2 -4 6 -12 9 -17 6
-5 -4 -12 1 -15 10 -4 9 -13 14 -20 11 -8 -3 -15 -1 -15 4 -1 6 -3 19 -4 30
-4 34 -5 35 -13 23 -5 -7 -13 -9 -22 -3 -11 7 -12 11 0 24 11 14 10 16 -6 10
-18 -7 -18 -7 -1 13 13 14 15 23 7 28 -10 6 -8 61 4 72 2 3 15 4 28 4 71 -5
202 1 224 10 18 6 31 6 39 -1 9 -7 19 -5 36 10 34 28 67 26 79 -6z m604 -89
c6 -10 20 -27 31 -36 15 -13 20 -31 22 -89 1 -40 4 -75 7 -78 13 -12 4 -20
-29 -26 -50 -10 -56 -2 -40 50 15 50 8 86 -21 102 -23 13 -45 77 -30 92 16 16
47 8 60 -15z"/>
<path d="M127 2353 c-4 -3 -34 -5 -67 -4 l-60 2 0 -98 c0 -57 6 -115 14 -137
l14 -40 32 57 c17 31 40 59 51 62 10 4 19 14 19 23 0 9 14 30 30 45 22 21 30
38 30 63 0 31 -3 34 -28 34 -16 0 -32 -3 -35 -7z"/>
<path d="M1186 2331 c-6 -10 23 -26 39 -22 6 2 7 0 3 -4 -3 -4 7 -28 23 -53
16 -25 29 -60 29 -76 l0 -31 59 0 c33 0 56 2 53 5 -4 3 -7 10 -7 15 0 6 -4 25
-9 43 -4 18 -6 36 -3 39 9 8 80 -20 105 -41 22 -20 22 -20 50 2 34 28 66 42
116 50 22 4 41 13 44 20 6 19 -90 3 -111 -19 -21 -22 -29 -23 -45 -7 -12 12
-140 47 -176 48 -16 0 -17 -3 -8 -12 7 -7 12 -23 12 -37 0 -21 -2 -23 -11 -11
-9 12 -10 11 -6 -8 3 -12 1 -20 -4 -16 -5 3 -9 -3 -9 -13 -1 -17 -1 -17 -14
-1 -7 10 -16 15 -19 12 -3 -3 -9 11 -13 31 -4 23 -9 32 -14 25 -6 -9 -10 -6
-14 8 -8 26 -62 66 -70 53z"/>
<path d="M1610 2199 c-30 -10 -62 -22 -70 -25 -12 -4 -10 -9 9 -23 29 -22 22
-36 -25 -51 -26 -9 -38 -9 -48 -1 -17 14 -27 -6 -20 -41 l5 -23 -10 23 c-12
26 -23 30 -14 5 16 -46 49 -51 112 -20 19 10 25 8 37 -8 19 -26 18 -42 -6 -55
-24 -13 -26 -38 -4 -68 11 -16 20 -20 32 -13 9 5 20 8 24 8 3 -1 16 10 27 25
19 23 21 39 21 157 0 72 -3 131 -7 130 -5 0 -33 -9 -63 -20z"/>
</g>
</svg>
